<svg width="60" height="60" viewBox="0 0 60 60" fill="none" xmlns="http://www.w3.org/2000/svg">
<path d="M29.515 52.03C41.9497 52.03 52.03 41.9497 52.03 29.515C52.03 17.0803 41.9497 7 29.515 7C17.0803 7 7 17.0803 7 29.515C7 41.9497 17.0803 52.03 29.515 52.03Z" fill="#34AADF"/>
<path d="M16.6517 29.0219C16.6517 29.0219 27.8045 24.2771 31.6725 22.6064C33.1553 21.9381 38.1836 19.7995 38.1836 19.7995C38.1836 19.7995 40.5045 18.864 40.3111 21.1361C40.2466 22.0718 39.7308 25.3463 39.2151 28.8882C38.4415 33.9004 37.6034 39.3803 37.6034 39.3803C37.6034 39.3803 37.4745 40.9174 36.3786 41.1847C35.2827 41.452 33.4775 40.2491 33.1553 39.9817C32.8973 39.7813 28.3202 36.774 26.6441 35.3037C26.1928 34.9028 25.6771 34.1009 26.7085 33.1653C29.0293 30.9599 31.8014 28.22 33.4775 26.4825C34.2512 25.6805 35.0247 23.8093 31.8014 26.0814C27.2243 29.356 22.7116 32.4301 22.7116 32.4301C22.7116 32.4301 21.6801 33.0984 19.7461 32.4969C17.812 31.8956 15.5557 31.0936 15.5557 31.0936C15.5557 31.0936 14.0086 30.0912 16.6517 29.0219Z" fill="white"/>
</svg>
