<svg width="60" height="60" viewBox="0 0 60 60" fill="none" xmlns="http://www.w3.org/2000/svg">
<path d="M19.3725 48.3647C19.3725 47.5978 19.3725 46.831 19.3725 46.0642C19.378 46.0328 19.3769 46.0007 19.3693 45.9698C19.3617 45.9389 19.3478 45.9099 19.3284 45.8845C19.309 45.8591 19.2846 45.838 19.2566 45.8223C19.2286 45.8067 19.1977 45.7969 19.1657 45.7935C17.2458 45.2536 15.4738 44.2917 13.9817 42.9795C12.8945 42.0005 11.9894 40.8402 11.3073 39.5514C10.3461 37.6897 9.7063 35.6818 9.41461 33.6111C9.0532 31.0135 8.92768 28.3891 9.03957 25.7693C9.0641 24.5479 9.12719 23.3404 9.2674 22.1191C9.49099 19.7981 10.0824 17.5265 11.0199 15.3876C12.1776 12.7579 14.2777 10.6455 16.9155 9.45775C18.7123 8.64376 20.6026 8.04952 22.5446 7.68815C24.4491 7.33105 26.3773 7.11187 28.3139 7.03235C30.0597 6.97124 31.8074 6.99672 33.5505 7.10869C36.0454 7.21294 38.5177 7.62201 40.9112 8.32659C42.6858 8.833 44.374 9.59903 45.9199 10.5993C47.4262 11.6229 48.6445 13.0093 49.46 14.6278C50.4188 16.5181 51.0706 18.5462 51.3913 20.6375C51.5997 21.879 51.7366 23.1314 51.8014 24.3883C51.8926 25.9463 51.882 27.5111 51.8225 29.0621C51.7629 30.6131 51.6297 32.119 51.4369 33.6388C51.1932 35.9199 50.4849 38.1283 49.3549 40.1308C47.884 42.664 45.5277 44.577 42.7303 45.509C40.8175 46.1721 38.8425 46.6441 36.8348 46.9178C35.3662 47.119 33.894 47.2647 32.4149 47.3237C31.2827 47.3758 30.1506 47.3619 29.0185 47.3446C28.377 47.3446 27.7391 47.2821 27.1012 47.2266C27.0386 47.2149 26.9738 47.2218 26.9152 47.2465C26.8566 47.2712 26.8066 47.3126 26.7717 47.3654C25.4819 48.899 24.1429 50.391 22.7935 51.8761C22.5477 52.1471 22.2631 52.3809 21.9487 52.5701C21.7424 52.7041 21.5072 52.7882 21.2619 52.8156C21.0167 52.843 20.7685 52.8129 20.5372 52.7278C20.3059 52.6427 20.098 52.5049 19.9304 52.3256C19.7628 52.1463 19.6401 51.9306 19.5723 51.6957C19.4387 51.2783 19.3725 50.8427 19.376 50.4049C19.3725 49.7179 19.3725 49.0413 19.3725 48.3647ZM20.9323 51.2758L21.097 51.1232L24.0237 47.9067C25.15 46.6691 26.2752 45.4304 27.3991 44.1905C27.4544 44.1149 27.5289 44.0551 27.6151 44.0173C27.7013 43.9795 27.7961 43.965 27.8898 43.9754C28.2719 44.0135 28.6539 44.0274 29.0395 44.0309C30.3714 44.0309 31.7034 44.0309 33.0353 43.9372C34.2445 43.8435 35.4503 43.6978 36.649 43.5104C37.9396 43.288 39.2173 42.9973 40.4765 42.6395C43.2806 41.8935 45.4502 40.2974 46.8137 37.7124C47.6187 36.1231 48.1235 34.4015 48.3034 32.6326C48.5164 30.9653 48.6439 29.2884 48.6854 27.6083C48.7476 25.4978 48.602 23.3863 48.2508 21.3037C48.0073 19.7948 47.5691 18.3231 46.9469 16.9248C46.1548 15.1899 45.0331 13.7534 43.3051 12.8304C40.6553 11.4147 37.7882 10.7832 34.8334 10.4605C33.9957 10.3703 33.158 10.3217 32.3167 10.2905C30.5943 10.2026 28.8682 10.2119 27.1468 10.3183C25.9088 10.4092 24.6775 10.5737 23.4594 10.811C21.6682 11.1342 19.9353 11.7189 18.3175 12.5459C17.3796 13.015 16.5287 13.638 15.8008 14.3883C14.6213 15.6935 13.756 17.2464 13.2702 18.9303C12.6938 20.8915 12.3792 22.9189 12.3343 24.9608C12.2216 27.0028 12.2473 29.05 12.4114 31.0885C12.5136 32.3017 12.7187 33.5042 13.0248 34.6832C13.4802 36.5206 14.3637 38.227 15.6046 39.6659C16.9442 41.1338 18.6757 42.1971 20.5993 42.7332C20.8411 42.806 20.9498 42.8893 20.9498 43.16C20.9288 44.1593 20.9498 45.1586 20.9498 46.1579L20.9323 51.2758Z" fill="#754A91"/>
<path d="M18.4794 20.2839C18.4549 19.524 18.872 18.9723 19.3767 18.4761C20.0424 17.8449 20.7758 17.2876 21.5639 16.8141C21.9232 16.5947 22.3505 16.5111 22.7671 16.5787C23.1838 16.6463 23.5618 16.8605 23.8316 17.1819C24.7851 18.1741 25.6386 19.256 26.3798 20.4123C26.7469 20.9324 27.0241 21.5093 27.2 22.1194C27.2703 22.3575 27.2749 22.6099 27.2133 22.8504C27.1516 23.0908 27.026 23.3105 26.8495 23.4865C26.4451 23.8795 26.0142 24.2447 25.5596 24.5795C25.3306 24.7602 25.1603 25.0036 25.0699 25.2794C24.9796 25.5552 24.9731 25.8512 25.0514 26.1305C25.3321 27.4424 25.9682 28.6539 26.8916 29.635C28.0135 30.9909 29.4591 32.0487 31.0977 32.7128C31.5003 32.9177 31.9616 32.9801 32.405 32.8897C32.6479 32.8241 32.8637 32.6845 33.0219 32.4907C33.2673 32.1819 33.5337 31.8835 33.7545 31.5538C34.0409 31.1427 34.4782 30.8585 34.9732 30.7619C35.4682 30.6653 35.9817 30.764 36.4043 31.0368C37.5925 31.7193 38.7142 32.5091 39.7552 33.3963C40.0005 33.6045 40.2564 33.8057 40.5018 34.0174C40.7921 34.2366 41.0017 34.544 41.0986 34.8925C41.1955 35.2409 41.1742 35.6113 41.038 35.9466C40.8215 36.5106 40.5058 37.0321 40.1057 37.4872C39.6084 38.1714 38.975 38.7476 38.2445 39.1805C37.8953 39.3835 37.5029 39.5027 37.0987 39.5286C36.6946 39.5545 36.2899 39.4864 35.9171 39.3297C33.0813 38.1994 30.4315 36.6569 28.0553 34.753C25.731 32.8589 23.6999 30.6378 22.0265 28.1604C20.6185 26.1095 19.4983 23.8789 18.6967 21.5296C18.6114 21.2454 18.5412 20.957 18.4864 20.6656C18.4708 20.5389 18.4685 20.411 18.4794 20.2839Z" fill="#754A91"/>
<path d="M30.5807 16.5919C32.9533 16.6354 35.2353 17.5017 37.0288 19.0401C38.8224 20.5784 40.0136 22.691 40.3949 25.0097C40.5484 25.8527 40.6305 26.7069 40.6402 27.5635C40.6402 27.7647 40.5877 27.9104 40.3703 27.9313C40.153 27.9521 40.0969 27.7682 40.0969 27.5843C40.1295 25.8517 39.7702 24.1339 39.0454 22.5565C38.435 21.2604 37.5308 20.1212 36.4031 19.2275C35.2754 18.3339 33.9546 17.7098 32.5435 17.4039C31.7975 17.2329 31.0345 17.1444 30.2687 17.1402C30.1942 17.1414 30.1198 17.1321 30.0479 17.1124C29.9867 17.0953 29.9346 17.0554 29.9026 17.001C29.8705 16.9466 29.8611 16.8821 29.8762 16.8209C29.8766 16.7919 29.8829 16.7633 29.8946 16.7367C29.9064 16.7101 29.9233 16.6861 29.9445 16.6661C29.9657 16.6461 29.9908 16.6304 30.0181 16.6201C30.0455 16.6097 30.0747 16.6049 30.104 16.6058C30.2617 16.585 30.423 16.5919 30.5807 16.5919Z" fill="#754A91"/>
<path d="M37.3468 26.0019C37.3351 25.038 37.0953 24.0902 36.6467 23.2345C36.1981 22.3788 35.5531 21.6392 34.7636 21.0748C33.8422 20.4341 32.7709 20.0364 31.6511 19.9194C31.4618 19.8951 31.2726 19.8847 31.0798 19.8639C30.887 19.843 30.7713 19.7632 30.7889 19.5689C30.8064 19.3746 30.9291 19.3052 31.1394 19.3191C34.2449 19.5065 36.8877 21.2448 37.7009 24.4822C37.8496 25.1064 37.9237 25.7457 37.9217 26.3871C37.9217 26.4461 37.9217 26.5051 37.9217 26.5606C37.9217 26.7341 37.8095 26.8486 37.6378 26.8451C37.5997 26.8438 37.5622 26.8349 37.5278 26.8188C37.4933 26.8028 37.4625 26.7799 37.4372 26.7516C37.412 26.7234 37.3928 26.6903 37.3809 26.6545C37.3689 26.6187 37.3645 26.5808 37.3679 26.5432C37.3398 26.3801 37.3468 26.2136 37.3468 26.0019Z" fill="#754A91"/>
<path d="M31.9059 22.1364C33.6093 22.2509 34.7976 23.0767 35.1235 24.8706C35.1631 25.1004 35.1912 25.332 35.2077 25.5646C35.2077 25.752 35.1656 25.9116 34.9588 25.9116C34.752 25.9116 34.6819 25.7728 34.6749 25.5646C34.6729 24.877 34.4589 24.2063 34.0615 23.6423C33.6438 23.1315 33.0442 22.7987 32.3861 22.7124C32.2389 22.6852 32.0903 22.6666 31.9409 22.6569C31.6956 22.6569 31.5589 22.5355 31.5904 22.3481C31.622 22.1607 31.7692 22.126 31.9059 22.1364Z" fill="#754A91"/>
</svg>
