<svg width="60" height="60" viewBox="0 0 60 60" fill="none" xmlns="http://www.w3.org/2000/svg">
<path d="M7 52.7809L10.2847 40.5785C7.63567 35.8251 6.79405 30.2782 7.91426 24.9558C9.03448 19.6334 12.0414 14.8924 16.3832 11.6029C20.725 8.3133 26.1105 6.69583 31.5514 7.04726C36.9924 7.39868 42.1238 9.69542 46.004 13.516C49.8842 17.3366 52.253 22.4248 52.6757 27.8469C53.0984 33.269 51.5466 38.6613 48.3052 43.0342C45.0637 47.4072 40.3499 50.4676 35.0289 51.6537C29.7078 52.8399 24.1364 52.0722 19.3369 49.4917L7 52.7809ZM19.9318 44.9255L20.6948 45.3769C24.1711 47.4322 28.2314 48.2827 32.2429 47.7959C36.2545 47.3091 39.9919 45.5124 42.8728 42.6857C45.7537 39.8589 47.6162 36.1611 48.1701 32.1683C48.724 28.1755 47.9382 24.1121 45.9351 20.6113C43.932 17.1105 40.8242 14.3689 37.0959 12.8139C33.3676 11.2588 29.2283 10.9776 25.3231 12.014C21.4179 13.0505 17.966 15.3464 15.5056 18.5439C13.0451 21.7415 11.7141 25.661 11.7201 29.6919C11.7168 33.0341 12.6435 36.3116 14.397 39.1597L14.8755 39.9465L13.0391 46.7571L19.9318 44.9255Z" fill="#00D95F"/>
<path fill-rule="evenodd" clip-rule="evenodd" d="M38.4498 32.8251C38.0025 32.4653 37.4788 32.212 36.9185 32.0846C36.3583 31.9572 35.7763 31.959 35.2168 32.0899C34.3762 32.4382 33.8331 33.7538 33.29 34.4117C33.1754 34.5694 33.0071 34.68 32.8167 34.7227C32.6262 34.7655 32.4266 34.7374 32.2554 34.6439C29.1781 33.4416 26.5986 31.237 24.936 28.3879C24.7942 28.2101 24.7271 27.9844 24.7488 27.7582C24.7705 27.5321 24.8794 27.3231 25.0524 27.1754C25.6582 26.5772 26.103 25.8364 26.3456 25.0213C26.3995 24.1223 26.193 23.2267 25.7507 22.4415C25.4088 21.3407 24.7582 20.3604 23.8756 19.6167C23.4204 19.4125 22.9157 19.344 22.4224 19.4195C21.929 19.495 21.4681 19.7113 21.0953 20.0423C20.448 20.5994 19.9342 21.2941 19.5918 22.0754C19.2494 22.8568 19.0871 23.7047 19.1167 24.5569C19.1187 25.0355 19.1795 25.512 19.2978 25.9758C19.5981 27.0902 20.0598 28.1548 20.6685 29.136C21.1077 29.8877 21.5869 30.6154 22.104 31.316C23.7845 33.6171 25.897 35.5709 28.3242 37.0689C29.5421 37.8301 30.8439 38.449 32.2037 38.9134C33.6163 39.5521 35.1759 39.7973 36.7169 39.6228C37.5949 39.4903 38.4268 39.1445 39.1394 38.6159C39.852 38.0874 40.4234 37.3922 40.8033 36.5916C41.0266 36.108 41.0943 35.5673 40.9973 35.0437C40.7645 33.9731 39.3291 33.3411 38.4498 32.8251Z" fill="#00D95F"/>
</svg>
